<?xml version="1.0" standalone="no"?>
<!DOCTYPE svg PUBLIC "-//W3C//DTD SVG 20010904//EN"
 "http://www.w3.org/TR/2001/REC-SVG-20010904/DTD/svg10.dtd">
<svg version="1.0" xmlns="http://www.w3.org/2000/svg"
 width="380.000000pt" height="192.000000pt" viewBox="0 0 380.000000 192.000000"
 preserveAspectRatio="xMidYMid meet">

<g transform="translate(0.000000,192.000000) scale(0.100000,-0.100000)"
fill="#000000" stroke="none">
<path d="M3170 1904 c-189 -25 -471 -73 -705 -120 -241 -48 -966 -210 -1095
-245 -456 -123 -786 -305 -1084 -597 -71 -70 -105 -96 -120 -94 -14 2 -46 -18
-94 -58 l-73 -62 27 -36 c218 -293 500 -504 811 -608 308 -103 643 -110 988
-19 507 132 1008 466 1688 1122 l128 124 79 207 c44 113 78 207 77 209 -10 10
-490 193 -504 192 -10 -1 -65 -7 -123 -15z m348 -114 c112 -44 207 -80 212
-80 15 0 12 -11 -7 -26 -42 -33 -520 -359 -643 -440 -669 -437 -1154 -644
-1670 -715 -140 -20 -459 -17 -600 5 -177 27 -559 130 -575 155 -14 23 23 19
142 -18 307 -94 535 -126 833 -118 345 9 613 71 981 227 345 146 828 430 1249
735 69 50 154 110 188 134 35 24 60 46 55 51 -4 4 -91 39 -193 77 -120 46
-196 69 -215 67 -378 -44 -1048 -181 -1828 -374 -500 -124 -719 -240 -1094
-578 -78 -71 -107 -91 -119 -84 -12 7 8 29 98 110 226 201 376 307 574 403
168 82 332 133 744 232 740 179 1124 255 1565 310 82 11 105 5 303 -73z m-668
-142 c0 -56 -2 -99 -4 -97 -9 10 -14 199 -5 199 5 0 9 -44 9 -102z m630 72 c8
-5 11 -10 5 -10 -5 0 -17 5 -25 10 -8 5 -10 10 -5 10 6 0 17 -5 25 -10z
m-1095 -255 c3 -18 2 -26 -4 -20 -12 13 -31 131 -30 181 1 26 6 12 14 -46 8
-47 16 -98 20 -115z m1180 185 c3 -6 -1 -7 -9 -4 -18 7 -21 14 -7 14 6 0 13
-4 16 -10z m-130 -30 c-3 -5 -12 -10 -18 -10 -7 0 -6 4 3 10 19 12 23 12 15 0z
m-1619 -182 c13 -48 30 -103 38 -122 8 -20 11 -36 7 -36 -4 0 -13 15 -19 33
-48 143 -69 218 -59 214 5 -1 21 -42 33 -89z m1049 82 c-3 -5 -12 -10 -19 -10
-7 0 -92 -22 -189 -48 -98 -27 -177 -45 -177 -41 0 3 53 21 118 38 143 38 266
70 270 70 2 1 0 -3 -3 -9z m4 -72 c1 -5 -3 -8 -9 -8 -5 0 -10 12 -9 28 0 24 1
25 9 7 5 -11 9 -23 9 -27z m-564 -183 c116 -37 263 -83 328 -103 111 -35 143
-52 96 -52 -34 0 -733 220 -741 233 -15 24 -7 25 50 7 31 -11 152 -49 267 -85z
m-1155 20 c13 -33 41 -95 62 -137 21 -43 34 -78 30 -78 -11 0 -132 253 -132
276 0 28 14 6 40 -61z m864 -3 c7 -12 -221 -75 -236 -66 -6 4 40 22 103 40
131 38 126 37 133 26z m-110 -88 c10 -25 -1 -29 -14 -5 -6 12 -7 21 -1 21 5 0
12 -7 15 -16z m-52 -235 c272 -97 343 -126 328 -133 -15 -7 -62 6 -182 48 -90
32 -253 89 -363 128 -110 38 -229 80 -264 92 -44 16 -67 30 -72 44 -9 24 -60
41 553 -179z m-505 104 c-4 -3 -25 -14 -47 -24 -30 -14 -40 -15 -40 -5 0 7 10
18 23 24 24 12 74 16 64 5z m-723 -47 c36 -62 131 -188 214 -283 73 -83 79
-93 63 -93 -13 0 -284 339 -311 389 -8 15 -5 31 6 31 1 0 14 -20 28 -44z m689
-65 c29 -52 32 -61 19 -61 -4 0 -20 25 -35 55 -33 68 -22 73 16 6z m-1133
-161 c12 -9 9 -15 -20 -40 -33 -28 -80 -40 -80 -21 0 9 70 70 80 71 3 0 12 -5
20 -10z m-69 -102 c8 -7 48 -50 88 -96 182 -204 437 -374 711 -473 128 -46
117 -51 -17 -8 -283 90 -553 270 -744 495 -38 45 -69 84 -69 88 0 10 15 7 31
-6z"/>
</g>
</svg>
