<?xml version="1.0" standalone="no"?>
<!DOCTYPE svg PUBLIC "-//W3C//DTD SVG 20010904//EN"
 "http://www.w3.org/TR/2001/REC-SVG-20010904/DTD/svg10.dtd">
<svg version="1.0" xmlns="http://www.w3.org/2000/svg"
 width="735.000000pt" height="404.000000pt" viewBox="0 0 735.000000 404.000000"
 preserveAspectRatio="xMidYMid meet">

<g transform="translate(0.000000,404.000000) scale(0.100000,-0.100000)"
fill="#000000" stroke="none">
<path d="M2922 3678 c-75 -14 -58 -21 19 -8 83 13 239 13 315 -1 343 -60 729
-355 992 -758 30 -46 134 -233 231 -416 l178 -332 -5 -61 c-4 -59 -4 -61 26
-76 17 -9 38 -16 46 -16 8 0 35 -39 62 -90 44 -83 60 -101 77 -83 4 3 -14 44
-39 90 -25 45 -42 83 -39 83 4 0 25 -12 48 -28 55 -36 106 -59 151 -67 20 -4
36 -13 36 -21 0 -7 -16 -42 -35 -77 -41 -75 -42 -85 -12 -96 24 -9 24 -9 9
-70 -11 -45 -26 -74 -60 -113 -68 -79 -100 -135 -123 -211 -13 -43 -32 -82
-53 -105 -45 -50 -68 -97 -61 -125 3 -12 -1 -39 -10 -59 -8 -21 -15 -52 -15
-69 0 -40 20 -109 37 -130 7 -8 13 -33 13 -55 0 -22 6 -49 14 -60 14 -20 15
-71 2 -92 -4 -7 -21 -12 -37 -12 -35 0 -60 -40 -43 -68 14 -24 71 -49 124 -57
39 -6 51 -3 85 21 22 15 56 31 75 36 61 17 63 21 55 133 -4 66 -13 110 -24
130 -10 17 -23 49 -31 72 -12 39 -11 43 15 77 15 19 35 62 45 93 11 35 21 52
24 43 11 -30 66 -288 66 -312 0 -33 38 -88 78 -113 21 -14 38 -37 52 -73 28
-74 26 -88 -19 -118 -21 -14 -42 -35 -45 -47 -19 -74 127 -116 200 -58 15 12
51 28 80 37 29 8 57 21 63 28 10 11 12 51 11 179 0 36 -43 123 -80 162 -15 17
-30 46 -33 65 -13 85 -30 146 -44 162 -14 16 -15 30 -3 125 10 80 18 111 30
120 21 15 40 85 40 145 0 25 11 66 25 96 14 30 25 63 25 74 0 33 19 58 45 58
30 0 31 3 101 187 83 221 92 377 27 481 -20 33 -29 58 -26 72 4 16 0 23 -16
27 -30 8 -26 28 18 93 50 73 58 112 35 169 -25 62 -88 101 -165 101 -48 0 -63
-5 -90 -27 -18 -16 -45 -29 -61 -29 -15 -1 -39 -2 -53 -3 -35 -2 -31 -14 11
-35 28 -13 34 -20 25 -29 -6 -6 -11 -23 -11 -37 0 -15 -11 -37 -25 -50 -21
-20 -23 -26 -12 -39 8 -9 15 -36 16 -61 4 -57 6 -60 41 -60 34 0 55 -29 46
-64 -4 -15 -18 -25 -49 -33 -30 -8 -58 -26 -87 -57 -23 -24 -61 -52 -83 -62
-23 -10 -54 -26 -70 -37 l-27 -19 -64 46 c-35 25 -84 69 -110 97 -40 44 -46
57 -41 80 8 35 -26 89 -56 89 -13 0 -19 7 -19 23 0 51 -43 61 -84 21 -26 -27
-36 -77 -16 -89 16 -10 12 -19 -19 -37 -28 -15 -30 -15 -44 0 -7 10 -67 116
-132 237 -127 237 -212 372 -304 487 -255 320 -575 543 -866 603 -83 17 -287
19 -373 3z m1798 -1368 c31 -25 170 -215 170 -234 0 -3 -17 -6 -37 -6 -29 0
-45 8 -74 36 -20 20 -47 41 -60 48 -13 6 -38 37 -55 68 -47 84 -50 96 -22 107
34 14 37 14 78 -19z"/>
<path d="M2838 3653 c7 -3 16 -2 19 1 4 3 -2 6 -13 5 -11 0 -14 -3 -6 -6z"/>
<path d="M1680 1816 c0 -82 28 -225 55 -281 31 -64 90 -105 151 -105 24 0 46
-5 50 -12 5 -8 10 -7 18 3 20 26 98 71 132 76 40 7 45 30 9 39 -18 4 -25 13
-25 30 0 22 4 24 54 24 34 0 58 5 66 14 9 12 5 16 -27 22 -56 10 -91 31 -108
64 -9 17 -20 30 -26 30 -11 0 -9 -19 6 -96 8 -36 -12 -57 -27 -30 -8 14 -12
15 -25 4 -9 -7 -22 -28 -30 -45 -9 -24 -20 -33 -36 -33 -43 0 -77 37 -107 116
-9 24 -8 26 10 21 28 -7 25 8 -9 35 -15 13 -33 38 -40 57 -18 54 -60 121 -76
121 -11 0 -15 -13 -15 -54z"/>
</g>
</svg>
